<svg width="24" height="24" viewBox="0 0 24 24" fill="none" xmlns="http://www.w3.org/2000/svg">
<g clip-path="url(#clip0)">
<path d="M4.78 24C3.9 24 3.42 23.8 3.16 23.64C2.8 23.43 2.14 22.89 1.54 21.31C0.485344 18.3208 -0.0359136 15.1696 -2.80724e-06 12V12C0.0199972 8.34 0.589997 5.24 1.54 2.7C2.14 1.1 2.8 0.56 3.16 0.35C3.42 0.21 3.9 0 4.78 0C5.11 0 5.5 0.03 5.96 0.1C9.03425 0.670012 11.9811 1.78777 14.66 3.4H14.67C17.3952 4.96147 19.8198 6.9967 21.83 9.41C22.89 10.73 23.02 11.58 23.02 12C23.02 12.42 22.89 13.27 21.83 14.59C19.819 16.9997 17.3944 19.0315 14.67 20.59H14.66C11.9817 22.2036 9.03466 23.3215 5.96 23.89C5.5 23.97 5.11 24 4.78 24V24Z" fill="#FD6A21"/>
</g>
<defs>
<clipPath id="clip0">
<rect width="24" height="24" fill="white"/>
</clipPath>
</defs>
</svg>
